<svg width="167" height="40" viewBox="0 0 167 40" fill="none" xmlns="http://www.w3.org/2000/svg">
<path fill-rule="evenodd" clip-rule="evenodd" d="M61.7977 16.7064H65.503C66.767 16.7064 67.7782 15.6374 67.6987 14.359C67.6193 13.1961 66.6009 12.3149 65.4308 12.3149H61.7977C61.6316 12.3149 61.4944 12.4521 61.4944 12.6183V16.403C61.4944 16.5691 61.6316 16.7064 61.7977 16.7064ZM68.2043 19.9494C68.1176 20.0144 68.0815 20.13 68.1249 20.2311L71.7001 28.6529C71.7651 28.8046 71.6568 28.9707 71.4906 28.9707H67.7637C67.5759 28.9707 67.4098 28.8552 67.3376 28.6818L64.2101 20.939C64.1379 20.7656 63.9718 20.65 63.784 20.65L61.7833 20.6428C61.6172 20.6428 61.4799 20.7801 61.4799 20.9462V28.6674C61.4799 28.8335 61.3427 28.9707 61.1766 28.9707H57.8541C57.688 28.9707 57.5508 28.8335 57.5508 28.6674V8.68183C57.5508 8.5157 57.688 8.37847 57.8541 8.37847H65.4958C68.8038 8.37847 71.5484 11.0004 71.6279 14.3084C71.6857 16.598 70.7828 18.1943 68.5871 19.6822C68.4827 19.7574 68.3976 19.8157 68.329 19.8626L68.329 19.8626L68.3289 19.8627L68.3289 19.8627C68.279 19.8969 68.2378 19.9251 68.2043 19.9494ZM78.8289 25.6555C80.2663 25.6555 81.0824 25.0632 81.263 23.8931C81.4436 22.7013 81.4436 20.5995 81.263 19.4005C81.0824 18.2304 80.2663 17.6381 78.8289 17.6381C77.341 17.6381 76.6188 18.1654 76.4238 19.4005C76.2432 20.5923 76.2432 22.6941 76.4238 23.8931C76.5899 25.0776 77.3772 25.6555 78.8289 25.6555ZM72.7835 19.4294C73.2024 16.078 75.5137 13.9978 78.8289 13.9978C82.1586 13.9978 84.4915 16.078 84.9032 19.4294C85.0549 20.6139 85.0549 22.6797 84.9032 23.8642C84.4843 27.2156 82.173 29.2958 78.8578 29.2958C75.5209 29.2958 73.1952 27.2156 72.7835 23.8642C72.6318 22.6797 72.6318 20.6067 72.7835 19.4294ZM95.6146 23.8859C95.5495 25.0343 94.625 25.7783 93.2672 25.7783C91.8587 25.7783 90.992 25.0921 90.8909 23.8859C90.8042 22.6941 90.8042 20.5995 90.8909 19.4077C90.9559 18.541 91.4254 17.5153 93.2672 17.5153C94.625 17.5153 95.5423 18.2593 95.6146 19.4077C95.7012 20.5995 95.7012 22.6941 95.6146 23.8859ZM93.715 13.9978C92.451 13.9978 91.8154 14.294 91.2231 14.814C91.1076 14.9223 90.9198 14.8357 90.9198 14.6768V8.68183C90.9198 8.5157 90.7826 8.37847 90.6164 8.37847H87.5901C87.424 8.37847 87.2868 8.5157 87.2868 8.68183V28.6674C87.2868 28.8335 87.424 28.9707 87.5901 28.9707H89.5836C89.728 28.9707 89.8653 28.9057 89.9519 28.7902L90.6887 27.8151C90.7609 27.714 90.9126 27.7212 90.9848 27.8151C91.5193 28.5518 92.2777 29.2958 93.7222 29.2958C96.6907 29.2958 99.0165 27.0134 99.262 23.8714C99.3487 22.6869 99.3487 20.6139 99.262 19.4294C99.0092 16.2802 96.6835 13.9978 93.715 13.9978ZM160.243 25.7782C161.601 25.7782 162.526 25.0343 162.591 23.8859C162.685 22.6941 162.685 20.5995 162.591 19.4077C162.519 18.2593 161.601 17.5153 160.243 17.5153C158.835 17.5153 157.968 18.2087 157.867 19.4077C157.781 20.5995 157.781 22.6941 157.867 23.8859C157.939 24.7526 158.402 25.7782 160.243 25.7782ZM160.691 13.9978C163.66 13.9978 165.993 16.2802 166.231 19.4222C166.318 20.6067 166.318 22.6869 166.231 23.8714C165.986 27.0134 163.66 29.2958 160.691 29.2958C159.427 29.2958 158.785 28.9996 158.199 28.4724C158.084 28.364 157.896 28.4507 157.896 28.6096V34.4456C157.896 34.6118 157.759 34.749 157.593 34.749H154.566C154.4 34.749 154.263 34.6118 154.263 34.4456V14.6262C154.263 14.4601 154.4 14.3229 154.566 14.3229H156.56C156.704 14.3229 156.842 14.3879 156.928 14.5034L157.658 15.4785C157.737 15.5796 157.882 15.5796 157.954 15.4785C158.488 14.7418 159.247 13.9978 160.691 13.9978ZM109.554 23.8931C109.374 25.0632 108.558 25.6555 107.12 25.6555C105.669 25.6555 104.881 25.0776 104.715 23.8931C104.535 22.6941 104.535 20.5923 104.715 19.4005C104.91 18.1654 105.632 17.6381 107.12 17.6381C108.558 17.6381 109.374 18.2304 109.554 19.4005C109.735 20.5995 109.735 22.7013 109.554 23.8931ZM107.12 13.9978C103.805 13.9978 101.494 16.078 101.075 19.4294C100.923 20.6067 100.923 22.6797 101.075 23.8642C101.487 27.2156 103.82 29.2958 107.149 29.2958C110.464 29.2958 112.776 27.2156 113.195 23.8642C113.346 22.6797 113.346 20.6139 113.195 19.4294C112.776 16.078 110.45 13.9978 107.12 13.9978ZM115.058 19.4294C115.477 16.078 117.803 13.9978 121.132 13.9978C124.635 13.9978 127.084 16.3452 127.077 19.7327V19.9061C127.077 20.0722 126.939 20.2095 126.773 20.2095H123.906C123.747 20.2095 123.617 20.0939 123.603 19.935C123.603 19.9213 123.601 19.9077 123.599 19.8933C123.597 19.8772 123.595 19.8602 123.595 19.8411C123.509 18.411 122.649 17.6526 121.104 17.6526C119.601 17.6526 118.857 18.1943 118.698 19.4149C118.547 20.6067 118.547 22.7085 118.698 23.9003C118.836 25.0776 119.652 25.6699 121.132 25.6699C122.635 25.6699 123.371 25.0126 123.595 23.4886L123.595 23.4882C123.603 23.445 123.61 23.4018 123.617 23.3658C123.639 23.2141 123.769 23.1058 123.92 23.1058H126.781C126.947 23.1058 127.084 23.243 127.084 23.4092V23.5825C127.084 27.3312 124.094 29.2958 121.132 29.2958C117.796 29.2958 115.47 27.2156 115.058 23.8642C114.906 22.6797 114.906 20.6067 115.058 19.4294ZM137.319 23.8931C137.138 25.0632 136.322 25.6555 134.885 25.6555C133.433 25.6555 132.645 25.0776 132.479 23.8931C132.299 22.6941 132.299 20.5923 132.479 19.4005C132.674 18.1654 133.397 17.6381 134.885 17.6381C136.322 17.6381 137.138 18.2304 137.319 19.4005C137.499 20.5995 137.499 22.7013 137.319 23.8931ZM134.885 13.9978C131.569 13.9978 129.258 16.078 128.839 19.4294C128.687 20.6067 128.687 22.6797 128.839 23.8642C129.251 27.2156 131.584 29.2958 134.913 29.2958C138.229 29.2958 140.54 27.2156 140.959 23.8642C141.11 22.6797 141.11 20.6139 140.959 19.4294C140.54 16.078 138.214 13.9978 134.885 13.9978ZM150.912 14.3301H152.096C152.27 14.3301 152.407 14.4673 152.4 14.6335V17.3637C152.4 17.5298 152.262 17.667 152.096 17.667H150.883C148.391 17.667 146.903 19.0538 146.903 21.3796V28.6746C146.903 28.8407 146.766 28.978 146.6 28.978H143.573C143.407 28.978 143.27 28.8407 143.27 28.6746V14.6407C143.27 14.4745 143.407 14.3373 143.573 14.3373H145.357C145.552 14.3373 145.726 14.4601 145.791 14.6479L146.361 16.3308C146.405 16.4608 146.571 16.4969 146.665 16.403C146.939 16.1214 147.416 15.6519 147.662 15.4569C148.254 14.9801 149.063 14.3301 150.912 14.3301Z" fill="white"/>
<path fill-rule="evenodd" clip-rule="evenodd" d="M16.9883 10.9043H29.267C29.9387 10.9043 30.4732 10.3626 30.4804 9.69814C30.4804 9.03364 29.9387 8.49193 29.2742 8.49193H16.9883C16.3238 8.49193 15.7821 9.03364 15.7821 9.69814C15.7821 10.3626 16.3238 10.9043 16.9883 10.9043ZM24.0449 16.3865C24.0449 17.181 24.6878 17.8238 25.4823 17.8238C26.2695 17.8238 26.9196 17.181 26.9196 16.3865C26.9196 15.592 26.2768 14.9491 25.4823 14.9491C24.6878 14.9491 24.0449 15.592 24.0449 16.3865ZM19.3429 16.3865C19.3429 17.181 19.9858 17.8238 20.7803 17.8238C21.5748 17.8238 22.2176 17.181 22.2176 16.3865C22.2176 15.592 21.5748 14.9491 20.7803 14.9491C19.9858 14.9491 19.3429 15.592 19.3429 16.3865ZM35.9552 9.11309C36.2947 12.0311 34.8935 14.653 32.6544 16.0831C32.4088 16.242 32.3583 16.5454 32.5461 16.7765C34.1856 18.6978 35.2546 21.1246 35.4713 23.7971C35.5002 24.0716 35.2907 24.3027 35.0162 24.3027H11.239C10.9718 24.3027 10.7623 24.0643 10.784 23.7971C11.0079 21.1246 12.0697 18.6978 13.7164 16.7765C13.9042 16.5526 13.8537 16.2492 13.6081 16.0903C11.2174 14.5663 9.78005 11.6916 10.394 8.54249C10.979 5.53057 13.3625 3.26982 16.3961 2.82923C17.8695 2.61255 19.2707 2.84368 20.4914 3.39983C22.1742 4.16545 24.081 4.17268 25.7639 3.39983C26.9918 2.83645 28.4075 2.60532 29.8881 2.82923C33.0517 3.29872 35.5868 5.93505 35.9552 9.11309ZM11.3835 26.4695H34.8718C35.1607 26.4695 35.3774 26.7295 35.3268 27.0185C34.294 32.8184 29.2308 37.2315 23.1276 37.2315C17.0244 37.2315 11.9613 32.8256 10.9285 27.0185C10.8779 26.7295 11.0946 26.4695 11.3835 26.4695ZM6.66706 10.861C4.37023 11.8 2.74512 14.0391 2.74512 16.6682V17.701C2.74512 20.3301 4.37745 22.562 6.66706 23.5082C6.97041 23.631 7.30266 23.4143 7.30266 23.082V11.2872C7.30266 10.9621 6.97041 10.7382 6.66706 10.861ZM38.9526 11.2871C38.9526 10.9549 39.2849 10.7382 39.5882 10.861C41.8851 11.8072 43.5102 14.039 43.5102 16.6681V17.701C43.5102 20.3301 41.8851 22.5692 39.5882 23.5082C39.2849 23.6309 38.9526 23.407 38.9526 23.082V11.2871Z" fill="white"/>
</svg>
