<svg width="80" height="80" viewBox="0 0 80 80" fill="none" xmlns="http://www.w3.org/2000/svg">
<path d="M73.6258 0H6.37424C2.85384 0 0 2.85384 0 6.37424V73.6258C0 77.1461 2.85384 80 6.37424 80H73.6258C77.1461 80 80 77.1461 80 73.6258V6.37424C80 2.85384 77.1461 0 73.6258 0Z" fill="url(#paint0_linear)"/>
<path d="M61.8191 56.0718C59.7366 56.0718 57.7394 55.2445 56.2668 53.7719C54.7942 52.2993 53.9669 50.3021 53.9669 48.2196V42.6793C53.9669 41.869 53.6451 41.092 53.0721 40.5191C52.4992 39.9461 51.7222 39.6243 50.9119 39.6243C50.1017 39.6243 49.3246 39.9461 48.7517 40.5191C48.1788 41.092 47.8569 41.869 47.8569 42.6793V48.2196C47.7276 50.2119 46.8449 52.0804 45.3881 53.4457C43.9313 54.811 42.0095 55.5708 40.013 55.5708C38.0164 55.5708 36.0946 54.811 34.6378 53.4457C33.181 52.0804 32.2984 50.2119 32.169 48.2196V31.4583C32.169 30.6481 31.8471 29.871 31.2742 29.2981C30.7013 28.7252 29.9242 28.4033 29.114 28.4033C28.3038 28.4033 27.5267 28.7252 26.9538 29.2981C26.3809 29.871 26.059 30.6481 26.059 31.4583V48.2196C25.9296 50.2119 25.047 52.0804 23.5902 53.4457C22.1334 54.811 20.2116 55.5708 18.215 55.5708C16.2185 55.5708 14.2967 54.811 12.8399 53.4457C11.3831 52.0804 10.5004 50.2119 10.3711 48.2196V42.2582C10.3711 41.6209 10.6242 41.0098 11.0748 40.5592C11.5254 40.1086 12.1366 39.8554 12.7738 39.8554C13.4111 39.8554 14.0222 40.1086 14.4728 40.5592C14.9234 41.0098 15.1765 41.6209 15.1765 42.2582V48.2196C15.1765 49.0298 15.4984 49.8069 16.0713 50.3798C16.6443 50.9527 17.4213 51.2746 18.2316 51.2746C19.0418 51.2746 19.8188 50.9527 20.3918 50.3798C20.9647 49.8069 21.2866 49.0298 21.2866 48.2196V31.4583C21.2379 30.3979 21.4047 29.3387 21.777 28.3447C22.1492 27.3506 22.7191 26.4423 23.4523 25.6747C24.1855 24.9071 25.0667 24.2962 26.0426 23.8787C27.0186 23.4613 28.069 23.2461 29.1305 23.2461C30.192 23.2461 31.2424 23.4613 32.2184 23.8787C33.1944 24.2962 34.0755 24.9071 34.8087 25.6747C35.5419 26.4423 36.1118 27.3506 36.4841 28.3447C36.8563 29.3387 37.0231 30.3979 36.9745 31.4583V48.2196C36.9745 49.0298 37.2963 49.8069 37.8693 50.3798C38.4422 50.9527 39.2192 51.2746 40.0295 51.2746C40.8397 51.2746 41.6168 50.9527 42.1897 50.3798C42.7626 49.8069 43.0845 49.0298 43.0845 48.2196V42.6793C43.2138 40.6869 44.0965 38.8184 45.5533 37.4531C47.0101 36.0878 48.9319 35.3281 50.9284 35.3281C52.925 35.3281 54.8467 36.0878 56.3036 37.4531C57.7604 38.8184 58.643 40.6869 58.7724 42.6793V48.2196C58.7724 49.0298 59.0942 49.8069 59.6672 50.3798C60.2401 50.9527 61.0171 51.2746 61.8274 51.2746C62.6376 51.2746 63.4147 50.9527 63.9876 50.3798C64.5605 49.8069 64.8824 49.0298 64.8824 48.2196V42.2582C64.9183 41.6464 65.1867 41.0714 65.6325 40.6509C66.0784 40.2304 66.6681 39.9962 67.281 39.9962C67.8939 39.9962 68.4836 40.2304 68.9295 40.6509C69.3753 41.0714 69.6437 41.6464 69.6796 42.2582V48.2196C69.6774 50.3029 68.8483 52.3001 67.3744 53.7724C65.9005 55.2448 63.9024 56.0718 61.8191 56.0718Z" fill="url(#paint1_linear)"/>
<defs>
<linearGradient id="paint0_linear" x1="39.9959" y1="0" x2="39.9959" y2="80" gradientUnits="userSpaceOnUse">
<stop stop-color="#7850FA"/>
<stop offset="0.94" stop-color="#5539A7"/>
</linearGradient>
<linearGradient id="paint1_linear" x1="39.9965" y1="-0.173451" x2="39.9965" y2="362.217" gradientUnits="userSpaceOnUse">
<stop stop-color="#EAE8E4"/>
<stop offset="1" stop-color="#1B151B"/>
</linearGradient>
</defs>
</svg>
