<svg width="80" height="80" viewBox="0 0 80 80" fill="none" xmlns="http://www.w3.org/2000/svg">
<path d="M73.6258 0H6.37424C2.85384 0 0 2.85384 0 6.37424V73.6258C0 77.1462 2.85384 80 6.37424 80H73.6258C77.1462 80 80 77.1462 80 73.6258V6.37424C80 2.85384 77.1462 0 73.6258 0Z" fill="url(#paint0_linear)"/>
<path d="M60.2586 47.4103H34.8112C32.9515 47.2581 31.2171 46.4118 29.9527 45.0397C28.6883 43.6675 27.9863 41.8699 27.9863 40.004C27.9863 38.1381 28.6883 36.3405 29.9527 34.9683C31.2171 33.5961 32.9515 32.7499 34.8112 32.5977H60.2586C60.8704 32.6336 61.4454 32.9019 61.8659 33.3478C62.2864 33.7937 62.5205 34.3834 62.5205 34.9963C62.5205 35.6091 62.2864 36.1988 61.8659 36.6447C61.4454 37.0906 60.8704 37.3589 60.2586 37.3949H34.8112C34.1192 37.3949 33.4556 37.6697 32.9663 38.1591C32.4769 38.6484 32.2021 39.312 32.2021 40.004C32.2021 40.696 32.4769 41.3596 32.9663 41.8489C33.4556 42.3382 34.1192 42.6131 34.8112 42.6131H60.2586C60.8704 42.6491 61.4454 42.9174 61.8659 43.3633C62.2864 43.8092 62.5205 44.3989 62.5205 45.0117C62.5205 45.6246 62.2864 46.2143 61.8659 46.6602C61.4454 47.1061 60.8704 47.3744 60.2586 47.4103Z" fill="url(#paint1_linear)"/>
<path d="M53.8589 57.4259H34.8105C30.1899 57.4259 25.7586 55.5904 22.4914 52.3232C19.2242 49.0559 17.3887 44.6246 17.3887 40.0041C17.3887 35.3835 19.2242 30.9522 22.4914 27.685C25.7586 24.4178 30.1899 22.5823 34.8105 22.5823H40.2022C40.529 22.5631 40.8563 22.6109 41.164 22.7227C41.4717 22.8346 41.7532 23.0082 41.9914 23.2328C42.2296 23.4574 42.4194 23.7283 42.5491 24.0289C42.6788 24.3295 42.7457 24.6535 42.7457 24.9809C42.7457 25.3082 42.6788 25.6322 42.5491 25.9328C42.4194 26.2334 42.2296 26.5043 41.9914 26.7289C41.7532 26.9535 41.4717 27.1271 41.164 27.239C40.8563 27.3508 40.529 27.3986 40.2022 27.3794H34.8105C31.4622 27.3794 28.2511 28.7095 25.8835 31.0771C23.516 33.4447 22.1859 36.6558 22.1859 40.0041C22.1859 43.3523 23.516 46.5635 25.8835 48.931C28.2511 51.2986 31.4622 52.6287 34.8105 52.6287H53.8589C54.1857 52.6095 54.513 52.6573 54.8207 52.7692C55.1284 52.8811 55.41 53.0546 55.6481 53.2792C55.8863 53.5039 56.0761 53.7748 56.2058 54.0754C56.3355 54.376 56.4024 54.6999 56.4024 55.0273C56.4024 55.3547 56.3355 55.6786 56.2058 55.9792C56.0761 56.2798 55.8863 56.5507 55.6481 56.7754C55.41 57 55.1284 57.1735 54.8207 57.2854C54.513 57.3973 54.1857 57.4451 53.8589 57.4259Z" fill="url(#paint2_linear)"/>
<defs>
<linearGradient id="paint0_linear" x1="40" y1="0" x2="40" y2="80" gradientUnits="userSpaceOnUse">
<stop stop-color="#7850FA"/>
<stop offset="0.94" stop-color="#5539A7"/>
</linearGradient>
<linearGradient id="paint1_linear" x1="45.0249" y1="-0.363447" x2="45.0249" y2="362.035" gradientUnits="userSpaceOnUse">
<stop stop-color="#EAE8E4"/>
<stop offset="1" stop-color="#1B151B"/>
</linearGradient>
<linearGradient id="paint2_linear" x1="2374.21" y1="304.181" x2="2374.21" y2="15601" gradientUnits="userSpaceOnUse">
<stop stop-color="#EAE8E4"/>
<stop offset="1" stop-color="#1B151B"/>
</linearGradient>
</defs>
</svg>
