<svg width="121" height="103" viewBox="0 0 121 103" fill="none" xmlns="http://www.w3.org/2000/svg">
<path fill-rule="evenodd" clip-rule="evenodd" d="M42.3657 24.4403H78.77C80.7616 24.4403 82.3462 22.8287 82.3676 20.8518C82.3676 18.875 80.7615 17.2634 78.7914 17.2634H42.3657C40.3956 17.2634 38.7895 18.875 38.7895 20.8518C38.7895 22.8287 40.3956 24.4403 42.3657 24.4403ZM63.2875 40.7496C63.2875 43.1133 65.1934 45.0257 67.5489 45.0257C69.8831 45.0257 71.8104 43.1133 71.8104 40.7496C71.8104 38.386 69.9045 36.4735 67.5489 36.4735C65.1934 36.4735 63.2875 38.386 63.2875 40.7496ZM49.3468 40.7496C49.3468 43.1133 51.2526 45.0257 53.6082 45.0257C55.9638 45.0257 57.8697 43.1133 57.8697 40.7496C57.8697 38.386 55.9638 36.4735 53.6082 36.4735C51.2526 36.4735 49.3468 38.386 49.3468 40.7496ZM98.5997 19.1113C99.6061 27.7924 95.4518 35.5925 88.8133 39.8471C88.0852 40.3199 87.9353 41.2224 88.4921 41.91C93.3531 47.6258 96.5225 54.8457 97.1649 62.7962C97.2506 63.6128 96.6295 64.3004 95.8158 64.3004H25.3199C24.5276 64.3004 23.9066 63.5913 23.9708 62.7962C24.6347 54.8457 27.7826 47.6258 32.665 41.91C33.2218 41.2439 33.0719 40.3414 32.3438 39.8686C25.2557 35.3347 20.9942 26.7825 22.8145 17.4138C24.549 8.45332 31.6157 1.72761 40.6097 0.416846C44.9783 -0.227791 49.1326 0.45982 52.7516 2.11439C57.7412 4.39211 63.3946 4.41359 68.3841 2.11439C72.0245 0.438332 76.2217 -0.249279 80.6116 0.416846C89.9911 1.81356 97.5075 9.65664 98.5997 19.1113ZM25.7482 70.7467H95.3875C96.2441 70.7467 96.8865 71.5203 96.7366 72.3798C93.6744 89.6346 78.6629 102.764 60.5679 102.764C42.4728 102.764 27.4614 89.656 24.3991 72.3798C24.2492 71.5203 24.8916 70.7467 25.7482 70.7467ZM11.7647 24.3114C4.95493 27.1048 0.136719 33.7661 0.136719 41.5877V44.6604C0.136719 52.482 4.97635 59.1218 11.7647 61.9367C12.6641 62.302 13.6491 61.6574 13.6491 60.6689V25.5792C13.6491 24.6122 12.6641 23.9461 11.7647 24.3114ZM107.487 25.5791C107.487 24.5907 108.472 23.946 109.371 24.3113C116.181 27.1262 120.999 33.766 120.999 41.5876V44.6604C120.999 52.482 116.181 59.1432 109.371 61.9366C108.472 62.3019 107.487 61.6358 107.487 60.6689V25.5791Z" fill="white"/>
</svg>
